<mxfile host="app.diagrams.net" modified="2023-10-20T15:24:39.200Z" agent="Mozilla/5.0 (X11; Ubuntu; Linux x86_64; rv:109.0) Gecko/20100101 Firefox/118.0" etag="audVBk-JnW1TXLppIjC-" version="22.0.6" type="github">
  <diagram name="Page-1" id="pIkQLPqZiOqD0bU2ul4Q">
    <mxGraphModel dx="779" dy="454" grid="1" gridSize="10" guides="1" tooltips="1" connect="1" arrows="1" fold="1" page="1" pageScale="1" pageWidth="3300" pageHeight="4681" math="0" shadow="0">
      <root>
        <mxCell id="0" />
        <mxCell id="1" parent="0" />
        <mxCell id="HiqYPDyTmavwEENrbkkr-3" value="" style="edgeStyle=orthogonalEdgeStyle;rounded=0;hachureGap=4;orthogonalLoop=1;jettySize=auto;html=1;fontFamily=Architects Daughter;fontSource=https%3A%2F%2Ffonts.googleapis.com%2Fcss%3Ffamily%3DArchitects%2BDaughter;fontSize=16;entryX=0.5;entryY=0;entryDx=0;entryDy=0;" parent="1" source="HiqYPDyTmavwEENrbkkr-1" target="HiqYPDyTmavwEENrbkkr-4" edge="1">
          <mxGeometry relative="1" as="geometry">
            <mxPoint x="520" y="360" as="targetPoint" />
            <Array as="points">
              <mxPoint x="500" y="360" />
            </Array>
          </mxGeometry>
        </mxCell>
        <mxCell id="HiqYPDyTmavwEENrbkkr-5" value="&lt;div&gt;No&lt;/div&gt;" style="edgeLabel;html=1;align=center;verticalAlign=middle;resizable=0;points=[];" parent="HiqYPDyTmavwEENrbkkr-3" vertex="1" connectable="0">
          <mxGeometry x="-0.4591" y="-1" relative="1" as="geometry">
            <mxPoint x="-2" y="-9" as="offset" />
          </mxGeometry>
        </mxCell>
        <mxCell id="HiqYPDyTmavwEENrbkkr-1" value="&lt;pre style=&quot;font-size: 10px;&quot;&gt;&lt;font style=&quot;font-size: 10px;&quot;&gt;p[i] == s[i]&lt;br&gt;&lt;/font&gt;&lt;/pre&gt;" style="rhombus;whiteSpace=wrap;html=1;hachureGap=4;fontFamily=Architects Daughter;fontSource=https%3A%2F%2Ffonts.googleapis.com%2Fcss%3Ffamily%3DArchitects%2BDaughter;fontSize=20;rounded=0;" parent="1" vertex="1">
          <mxGeometry x="600" y="320" width="120" height="80" as="geometry" />
        </mxCell>
        <mxCell id="HiqYPDyTmavwEENrbkkr-6" style="edgeStyle=orthogonalEdgeStyle;orthogonalLoop=1;jettySize=auto;html=1;" parent="1" source="HiqYPDyTmavwEENrbkkr-4" edge="1" target="H-mhdrkuHALw0kcm6xCg-6">
          <mxGeometry relative="1" as="geometry">
            <mxPoint x="380" y="440" as="targetPoint" />
          </mxGeometry>
        </mxCell>
        <mxCell id="H-mhdrkuHALw0kcm6xCg-7" value="No" style="edgeLabel;html=1;align=center;verticalAlign=middle;resizable=0;points=[];" vertex="1" connectable="0" parent="HiqYPDyTmavwEENrbkkr-6">
          <mxGeometry x="-0.1929" y="-1" relative="1" as="geometry">
            <mxPoint x="-4" y="-9" as="offset" />
          </mxGeometry>
        </mxCell>
        <mxCell id="HiqYPDyTmavwEENrbkkr-8" value="" style="edgeStyle=orthogonalEdgeStyle;orthogonalLoop=1;jettySize=auto;html=1;" parent="1" source="HiqYPDyTmavwEENrbkkr-4" target="HiqYPDyTmavwEENrbkkr-7" edge="1">
          <mxGeometry relative="1" as="geometry" />
        </mxCell>
        <mxCell id="H-mhdrkuHALw0kcm6xCg-1" value="Yes" style="edgeLabel;html=1;align=center;verticalAlign=middle;resizable=0;points=[];" vertex="1" connectable="0" parent="HiqYPDyTmavwEENrbkkr-8">
          <mxGeometry x="-0.3286" relative="1" as="geometry">
            <mxPoint x="10" y="7" as="offset" />
          </mxGeometry>
        </mxCell>
        <mxCell id="HiqYPDyTmavwEENrbkkr-4" value="&lt;div style=&quot;font-size: 10px;&quot; align=&quot;center&quot;&gt;&lt;pre&gt;matchFlag == 1&lt;br&gt;p[i] == &#39;\0&#39;&lt;br&gt;&lt;/pre&gt;&lt;/div&gt;" style="rhombus;whiteSpace=wrap;html=1;hachureGap=4;fontFamily=Architects Daughter;fontSource=https%3A%2F%2Ffonts.googleapis.com%2Fcss%3Ffamily%3DArchitects%2BDaughter;fontSize=20;rounded=0;" parent="1" vertex="1">
          <mxGeometry x="440" y="400" width="120" height="80" as="geometry" />
        </mxCell>
        <mxCell id="H-mhdrkuHALw0kcm6xCg-4" value="" style="edgeStyle=orthogonalEdgeStyle;rounded=0;orthogonalLoop=1;jettySize=auto;html=1;" edge="1" parent="1" source="HiqYPDyTmavwEENrbkkr-7" target="H-mhdrkuHALw0kcm6xCg-3">
          <mxGeometry relative="1" as="geometry" />
        </mxCell>
        <mxCell id="HiqYPDyTmavwEENrbkkr-7" value="&lt;div style=&quot;font-size: 10px;&quot; align=&quot;center&quot;&gt;&lt;pre&gt;s[i] == &#39;\n&#39;&lt;br&gt;&lt;/pre&gt;&lt;/div&gt;" style="rhombus;whiteSpace=wrap;html=1;hachureGap=4;fontFamily=Architects Daughter;fontSource=https%3A%2F%2Ffonts.googleapis.com%2Fcss%3Ffamily%3DArchitects%2BDaughter;fontSize=20;rounded=0;" parent="1" vertex="1">
          <mxGeometry x="440" y="520" width="120" height="80" as="geometry" />
        </mxCell>
        <mxCell id="H-mhdrkuHALw0kcm6xCg-17" style="edgeStyle=orthogonalEdgeStyle;rounded=0;orthogonalLoop=1;jettySize=auto;html=1;" edge="1" parent="1" source="H-mhdrkuHALw0kcm6xCg-2" target="H-mhdrkuHALw0kcm6xCg-12">
          <mxGeometry relative="1" as="geometry">
            <Array as="points">
              <mxPoint x="180" y="260" />
            </Array>
          </mxGeometry>
        </mxCell>
        <mxCell id="H-mhdrkuHALw0kcm6xCg-2" value="reset some shit" style="rounded=1;whiteSpace=wrap;html=1;" vertex="1" parent="1">
          <mxGeometry x="120" y="420" width="120" height="40" as="geometry" />
        </mxCell>
        <mxCell id="H-mhdrkuHALw0kcm6xCg-5" value="" style="edgeStyle=orthogonalEdgeStyle;rounded=0;orthogonalLoop=1;jettySize=auto;html=1;" edge="1" parent="1" source="H-mhdrkuHALw0kcm6xCg-3" target="H-mhdrkuHALw0kcm6xCg-2">
          <mxGeometry relative="1" as="geometry" />
        </mxCell>
        <mxCell id="H-mhdrkuHALw0kcm6xCg-3" value="&lt;div&gt;perfMatchinfFlag = 1&lt;/div&gt;" style="rounded=1;whiteSpace=wrap;html=1;" vertex="1" parent="1">
          <mxGeometry x="440" y="640" width="120" height="40" as="geometry" />
        </mxCell>
        <mxCell id="H-mhdrkuHALw0kcm6xCg-9" value="" style="edgeStyle=orthogonalEdgeStyle;rounded=0;orthogonalLoop=1;jettySize=auto;html=1;" edge="1" parent="1" source="H-mhdrkuHALw0kcm6xCg-6" target="H-mhdrkuHALw0kcm6xCg-2">
          <mxGeometry relative="1" as="geometry" />
        </mxCell>
        <mxCell id="H-mhdrkuHALw0kcm6xCg-10" value="&lt;div&gt;Yes&lt;/div&gt;" style="edgeLabel;html=1;align=center;verticalAlign=middle;resizable=0;points=[];" vertex="1" connectable="0" parent="H-mhdrkuHALw0kcm6xCg-9">
          <mxGeometry x="-0.25" y="-3" relative="1" as="geometry">
            <mxPoint y="-7" as="offset" />
          </mxGeometry>
        </mxCell>
        <mxCell id="H-mhdrkuHALw0kcm6xCg-16" style="edgeStyle=orthogonalEdgeStyle;rounded=0;orthogonalLoop=1;jettySize=auto;html=1;" edge="1" parent="1" source="H-mhdrkuHALw0kcm6xCg-6" target="H-mhdrkuHALw0kcm6xCg-12">
          <mxGeometry relative="1" as="geometry" />
        </mxCell>
        <mxCell id="H-mhdrkuHALw0kcm6xCg-6" value="&lt;div style=&quot;font-size: 10px;&quot; align=&quot;center&quot;&gt;&lt;pre&gt;s[i] == &#39;\n&#39;&lt;br&gt;&lt;/pre&gt;&lt;/div&gt;" style="rhombus;whiteSpace=wrap;html=1;hachureGap=4;fontFamily=Architects Daughter;fontSource=https%3A%2F%2Ffonts.googleapis.com%2Fcss%3Ffamily%3DArchitects%2BDaughter;fontSize=20;rounded=0;" vertex="1" parent="1">
          <mxGeometry x="280" y="400" width="120" height="80" as="geometry" />
        </mxCell>
        <mxCell id="H-mhdrkuHALw0kcm6xCg-18" style="edgeStyle=orthogonalEdgeStyle;rounded=0;orthogonalLoop=1;jettySize=auto;html=1;" edge="1" parent="1" source="H-mhdrkuHALw0kcm6xCg-12" target="HiqYPDyTmavwEENrbkkr-1">
          <mxGeometry relative="1" as="geometry">
            <Array as="points">
              <mxPoint x="640" y="260" />
            </Array>
          </mxGeometry>
        </mxCell>
        <mxCell id="H-mhdrkuHALw0kcm6xCg-12" value="Update" style="rounded=1;whiteSpace=wrap;html=1;" vertex="1" parent="1">
          <mxGeometry x="280" y="240" width="120" height="40" as="geometry" />
        </mxCell>
        <mxCell id="H-mhdrkuHALw0kcm6xCg-19" style="edgeStyle=orthogonalEdgeStyle;rounded=0;orthogonalLoop=1;jettySize=auto;html=1;" edge="1" parent="1" source="H-mhdrkuHALw0kcm6xCg-13" target="HiqYPDyTmavwEENrbkkr-1">
          <mxGeometry relative="1" as="geometry" />
        </mxCell>
        <mxCell id="H-mhdrkuHALw0kcm6xCg-13" value="Initialize" style="rounded=1;whiteSpace=wrap;html=1;" vertex="1" parent="1">
          <mxGeometry x="600" y="120" width="120" height="80" as="geometry" />
        </mxCell>
        <mxCell id="H-mhdrkuHALw0kcm6xCg-15" value="" style="edgeStyle=orthogonalEdgeStyle;rounded=0;orthogonalLoop=1;jettySize=auto;html=1;" edge="1" parent="1" source="H-mhdrkuHALw0kcm6xCg-14" target="H-mhdrkuHALw0kcm6xCg-13">
          <mxGeometry relative="1" as="geometry" />
        </mxCell>
        <mxCell id="H-mhdrkuHALw0kcm6xCg-14" value="" style="ellipse;" vertex="1" parent="1">
          <mxGeometry x="645" y="40" width="30" height="30" as="geometry" />
        </mxCell>
      </root>
    </mxGraphModel>
  </diagram>
</mxfile>
